<?xml version="1.0" encoding="UTF-8"?>
<svg width="512" height="512" viewBox="0 0 512 512" fill="none" xmlns="http://www.w3.org/2000/svg">
  <defs>
    <!-- Dark background gradient -->
    <linearGradient id="darkBg" x1="0%" y1="0%" x2="100%" y2="100%">
      <stop offset="0%" style="stop-color:#1F1B2E;stop-opacity:1" />
      <stop offset="100%" style="stop-color:#0F0C1A;stop-opacity:1" />
    </linearGradient>
    
    <!-- Purple gradient for the lightning bolt -->
    <linearGradient id="purpleGradient" x1="0%" y1="0%" x2="100%" y2="100%">
      <stop offset="0%" style="stop-color:#9333EA;stop-opacity:1" />
      <stop offset="50%" style="stop-color:#7C3AED;stop-opacity:1" />
      <stop offset="100%" style="stop-color:#5B21B6;stop-opacity:1" />
    </linearGradient>
    
    <!-- Glow effect filter -->
    <filter id="glow" x="-50%" y="-50%" width="200%" height="200%">
      <feGaussianBlur stdDeviation="8" result="coloredBlur"/>
      <feMerge> 
        <feMergeNode in="coloredBlur"/>
        <feMergeNode in="SourceGraphic"/> 
      </feMerge>
    </filter>
    
    <!-- Inner glow -->
    <filter id="innerGlow" x="-50%" y="-50%" width="200%" height="200%">
      <feGaussianBlur stdDeviation="4" result="softGlow"/>
      <feMerge> 
        <feMergeNode in="softGlow"/>
        <feMergeNode in="SourceGraphic"/> 
      </feMerge>
    </filter>
  </defs>
  
  <!-- Dark background with subtle gradient -->
  <rect width="512" height="512" rx="128" fill="url(#darkBg)"/>
  
  <!-- Outer glow background -->
  <circle cx="256" cy="256" r="180" fill="url(#purpleGradient)" opacity="0.1" filter="url(#glow)"/>
  
  <!-- Lightning bolt shape -->
  <path d="M280 80 L200 240 L260 240 L232 432 L312 272 L252 272 L280 80 Z" 
        fill="url(#purpleGradient)" 
        filter="url(#glow)" 
        stroke="#A855F7" 
        stroke-width="2"/>
  
  <!-- Inner highlight for extra glow -->
  <path d="M275 90 L210 230 L255 230 L237 420 L302 282 L257 282 L275 90 Z" 
        fill="#DDD6FE" 
        opacity="0.6" 
        filter="url(#innerGlow)"/>
  
  <!-- Core lightning bolt -->
  <path d="M270 100 L220 220 L250 220 L242 400 L292 292 L262 292 L270 100 Z" 
        fill="#FFFFFF" 
        opacity="0.9"/>
</svg>
