<?xml version="1.0" encoding="UTF-8"?>
<svg width="512" height="512" viewBox="0 0 512 512" fill="none" xmlns="http://www.w3.org/2000/svg">
  <rect width="512" height="512" rx="128" fill="#3B82F6"/>
  <path d="M256 128C179.307 128 117.333 189.973 117.333 266.667C117.333 343.36 179.307 405.333 256 405.333C332.693 405.333 394.667 343.36 394.667 266.667C394.667 189.973 332.693 128 256 128ZM256 373.333C197.12 373.333 149.333 325.547 149.333 266.667C149.333 207.787 197.12 160 256 160C314.88 160 362.667 207.787 362.667 266.667C362.667 325.547 314.88 373.333 256 373.333Z" fill="white"/>
  <path d="M256 192C214.827 192 181.333 225.493 181.333 266.667C181.333 307.84 214.827 341.333 256 341.333C297.173 341.333 330.667 307.84 330.667 266.667C330.667 225.493 297.173 192 256 192ZM256 309.333C232.533 309.333 213.333 290.133 213.333 266.667C213.333 243.2 232.533 224 256 224C279.467 224 298.667 243.2 298.667 266.667C298.667 290.133 279.467 309.333 256 309.333Z" fill="white"/>
  <circle cx="256" cy="266.667" r="21.333" fill="white"/>
</svg>
